<svg width="1440" height="900" viewBox="0 0 1440 900" fill="none" xmlns="http://www.w3.org/2000/svg">
  <rect width="1440" height="900" fill="#F7F2E8"/>
  <rect x="56" y="44" width="1328" height="812" rx="28" fill="#1B3A28"/>
  <rect x="80" y="76" width="1280" height="748" rx="18" fill="#FBFAF6"/>
  <rect x="80" y="76" width="1280" height="64" rx="18" fill="#243226"/>
  <rect x="80" y="122" width="1280" height="18" fill="#243226"/>
  <circle cx="116" cy="108" r="9" fill="#9A5444"/>
  <circle cx="146" cy="108" r="9" fill="#B6813B"/>
  <circle cx="176" cy="108" r="9" fill="#5B7A5A"/>
  <text x="220" y="116" fill="#F3EFE6" font-family="Inter, Arial, sans-serif" font-size="22" font-weight="700">Novel Writer</text>
  <text x="1084" y="115" fill="#D6DDD0" font-family="Inter, Arial, sans-serif" font-size="16">local-first AI writing workspace</text>

  <rect x="104" y="164" width="220" height="636" rx="14" fill="#EEE6DA"/>
  <text x="128" y="204" fill="#1B3A28" font-family="Inter, Arial, sans-serif" font-size="18" font-weight="700">Project Shelf</text>
  <rect x="128" y="232" width="172" height="46" rx="8" fill="#2D5E3A"/>
  <text x="150" y="261" fill="#ffffff" font-family="Inter, Arial, sans-serif" font-size="15" font-weight="700">Workbench</text>
  <rect x="128" y="296" width="172" height="36" rx="7" fill="#F3EFE6"/>
  <text x="150" y="319" fill="#6E746A" font-family="Inter, Arial, sans-serif" font-size="14">Characters</text>
  <rect x="128" y="344" width="172" height="36" rx="7" fill="#F3EFE6"/>
  <text x="150" y="367" fill="#6E746A" font-family="Inter, Arial, sans-serif" font-size="14">Worldbuilding</text>
  <rect x="128" y="392" width="172" height="36" rx="7" fill="#F3EFE6"/>
  <text x="150" y="415" fill="#6E746A" font-family="Inter, Arial, sans-serif" font-size="14">Scenes</text>
  <rect x="128" y="440" width="172" height="36" rx="7" fill="#F3EFE6"/>
  <text x="150" y="463" fill="#6E746A" font-family="Inter, Arial, sans-serif" font-size="14">References</text>
  <rect x="128" y="720" width="172" height="44" rx="9" fill="#D8D2C6"/>
  <text x="150" y="748" fill="#1B3A28" font-family="Inter, Arial, sans-serif" font-size="14" font-weight="700">Settings</text>

  <rect x="352" y="164" width="636" height="636" rx="14" fill="#ffffff"/>
  <text x="392" y="210" fill="#1B3A28" font-family="Georgia, serif" font-size="34" font-weight="700">Chapter 03 · The Quiet Signal</text>
  <text x="392" y="246" fill="#6E746A" font-family="Inter, Arial, sans-serif" font-size="15">Scene goal, conflict, and emotional memory stay close to the draft.</text>
  <line x1="392" y1="280" x2="948" y2="280" stroke="#D6DDD0" stroke-width="2"/>
  <text x="392" y="326" fill="#1B3A28" font-family="Georgia, serif" font-size="21">Mira stopped at the archive door and listened.</text>
  <text x="392" y="372" fill="#1B3A28" font-family="Georgia, serif" font-size="21">The council seal had been broken from the inside.</text>
  <text x="392" y="418" fill="#1B3A28" font-family="Georgia, serif" font-size="21">Every memory now needed a second witness.</text>
  <rect x="392" y="500" width="242" height="42" rx="8" fill="#2D5E3A"/>
  <text x="420" y="527" fill="#ffffff" font-family="Inter, Arial, sans-serif" font-size="15" font-weight="700">Ask AI to continue</text>
  <rect x="650" y="500" width="188" height="42" rx="8" fill="#F3EFE6"/>
  <text x="678" y="527" fill="#1B3A28" font-family="Inter, Arial, sans-serif" font-size="15" font-weight="700">Save version</text>
  <rect x="392" y="594" width="556" height="118" rx="12" fill="#F7F2E8"/>
  <text x="420" y="628" fill="#2D5E3A" font-family="Inter, Arial, sans-serif" font-size="16" font-weight="700">Candidate output waits for author review</text>
  <text x="420" y="662" fill="#6E746A" font-family="Inter, Arial, sans-serif" font-size="15">Generated prose is staged as a candidate before it touches the real draft.</text>
  <text x="420" y="690" fill="#6E746A" font-family="Inter, Arial, sans-serif" font-size="15">Character memory and world rules travel with each request.</text>

  <rect x="1016" y="164" width="320" height="636" rx="14" fill="#F3EFE6"/>
  <text x="1044" y="204" fill="#1B3A28" font-family="Inter, Arial, sans-serif" font-size="18" font-weight="700">AI Context</text>
  <rect x="1044" y="232" width="264" height="92" rx="10" fill="#ffffff"/>
  <text x="1064" y="262" fill="#2D5E3A" font-family="Inter, Arial, sans-serif" font-size="15" font-weight="700">Character Memory</text>
  <text x="1064" y="292" fill="#6E746A" font-family="Inter, Arial, sans-serif" font-size="14">Mira distrusts polished certainty.</text>
  <rect x="1044" y="344" width="264" height="110" rx="10" fill="#ffffff"/>
  <text x="1064" y="374" fill="#2D5E3A" font-family="Inter, Arial, sans-serif" font-size="15" font-weight="700">World Rules</text>
  <text x="1064" y="404" fill="#6E746A" font-family="Inter, Arial, sans-serif" font-size="14">Council seals cannot be forged</text>
  <text x="1064" y="428" fill="#6E746A" font-family="Inter, Arial, sans-serif" font-size="14">without a witness key.</text>
  <rect x="1044" y="474" width="264" height="128" rx="10" fill="#ffffff"/>
  <text x="1064" y="504" fill="#2D5E3A" font-family="Inter, Arial, sans-serif" font-size="15" font-weight="700">Review Gates</text>
  <text x="1064" y="534" fill="#6E746A" font-family="Inter, Arial, sans-serif" font-size="14">Continuity</text>
  <rect x="1156" y="520" width="120" height="10" rx="5" fill="#5B7A5A"/>
  <text x="1064" y="564" fill="#6E746A" font-family="Inter, Arial, sans-serif" font-size="14">Character voice</text>
  <rect x="1156" y="550" width="96" height="10" rx="5" fill="#B6813B"/>
  <rect x="1044" y="652" width="264" height="84" rx="10" fill="#2D5E3A"/>
  <text x="1064" y="686" fill="#ffffff" font-family="Inter, Arial, sans-serif" font-size="16" font-weight="700">OpenAI-compatible</text>
  <text x="1064" y="714" fill="#D6DDD0" font-family="Inter, Arial, sans-serif" font-size="14">Bring your own provider.</text>
</svg>
